<svg width="17" height="22" viewBox="0 0 17 22" fill="none" xmlns="http://www.w3.org/2000/svg">
<path d="M8.50049 2C7.78317 2 7.09522 2.31607 6.58799 2.87868C6.08077 3.44129 5.79581 4.20435 5.79581 5V9C5.79581 9.79565 6.08077 10.5587 6.58799 11.1213C7.09522 11.6839 7.78317 12 8.50049 12C9.21782 12 9.90576 11.6839 10.413 11.1213C10.9202 10.5587 11.2052 9.79565 11.2052 9V5C11.2052 4.20435 10.9202 3.44129 10.413 2.87868C9.90576 2.31607 9.21782 2 8.50049 2ZM8.50049 0C9.09246 0 9.67864 0.129329 10.2256 0.380602C10.7725 0.631876 11.2694 1.00017 11.688 1.46447C12.1066 1.92876 12.4386 2.47995 12.6652 3.08658C12.8917 3.69321 13.0083 4.34339 13.0083 5V9C13.0083 10.3261 12.5334 11.5979 11.688 12.5355C10.8426 13.4732 9.69603 14 8.50049 14C7.30495 14 6.15837 13.4732 5.31299 12.5355C4.46762 11.5979 3.99269 10.3261 3.99269 9V5C3.99269 3.67392 4.46762 2.40215 5.31299 1.46447C6.15837 0.526784 7.30495 0 8.50049 0ZM0.436035 10H2.25268C2.47112 11.6648 3.22264 13.1867 4.36975 14.2873C5.51686 15.3879 6.98288 15.9936 8.49959 15.9936C10.0163 15.9936 11.4823 15.3879 12.6294 14.2873C13.7765 13.1867 14.5281 11.6648 14.7465 10H16.564C16.3591 12.0287 15.5386 13.9199 14.2373 15.3635C12.936 16.8071 11.231 17.7174 9.40205 17.945V22H7.59893V17.945C5.76979 17.7176 4.06462 16.8074 2.76312 15.3638C1.46162 13.9202 0.641061 12.0289 0.436035 10Z" fill="#FFFFFF"/>
</svg>
