<svg width="50" height="23" viewBox="0 0 50 23" fill="none" xmlns="http://www.w3.org/2000/svg">
<g opacity="0.7">
<path d="M15.3875 9.17305H17.0489V15.3597H15.4493L15.348 14.5797C14.9421 15.2311 14.0679 15.4812 13.4769 15.4932C11.6573 15.5061 10.3377 14.3046 10.3377 12.2644C10.3377 10.2241 11.7285 9.0106 13.526 9.03553C14.2894 9.03553 15.0038 9.3363 15.3235 9.88637L15.3875 9.17305ZM12.113 12.2644C12.113 13.2905 12.825 13.8913 13.7135 13.8913C14.7103 13.8913 15.3258 13.1032 15.3258 12.3271C15.3258 11.4425 14.772 10.6246 13.7135 10.6246C12.8266 10.6246 12.113 11.2382 12.113 12.2644Z" fill="#D36C59"/>
<path d="M21.962 15.36V12.0893C21.962 11.1387 21.5561 10.6506 20.7064 10.6506C19.8813 10.6377 19.3275 11.3639 19.3275 12.1649V15.36H17.579V9.17328H19.1795L19.2412 9.96219C19.7832 9.24887 20.4722 9.01083 21.2112 9.02289C22.5782 9.02289 23.7476 9.67429 23.7476 12.0788V15.36H21.962Z" fill="#D36C59"/>
<path d="M33.1045 12.8532C33.1907 13.4539 33.7572 13.9421 34.754 13.9421C35.2342 13.9421 35.8996 13.8287 36.33 13.4539L37.3276 14.5798C36.6749 15.2312 35.629 15.4934 34.7168 15.4934C32.5127 15.4934 31.3062 14.1793 31.3062 12.2018C31.3062 10.3248 32.5499 9.01074 34.5317 9.01074C36.6005 9.01074 37.955 10.3248 37.5728 12.8532H33.1045ZM35.9858 11.5391C35.9486 10.8628 35.2738 10.55 34.5325 10.55C33.8205 10.55 33.2769 10.9255 33.1045 11.5391H35.9858Z" fill="#D36C59"/>
<path d="M39.7153 9.18623L39.8506 9.86176C40.2572 9.28595 40.7999 9.03585 41.4763 9.03585C42.0257 9.02174 42.5592 9.22335 42.9661 9.59879L42.2271 11.0254C41.9447 10.8166 41.6032 10.7068 41.254 10.7126C40.4914 10.7126 39.8387 11.2136 39.8387 12.14V15.3568H38.0665V9.18623H39.7153Z" fill="#D36C59"/>
<path d="M6.14719 12.8917C5.72788 12.3698 5.557 11.691 5.55067 11.0549C5.53801 9.77865 6.30146 8.24022 8.25953 8.24022C8.90193 8.24022 9.59814 8.42519 10.1084 8.86589L10.8948 8.06169L11.3133 7.64029C10.4904 6.84258 9.39663 6.39812 8.25953 6.39942C5.09497 6.39942 3.64244 8.77742 3.65431 11.0428C3.66064 12.2684 4.00874 13.4305 4.78722 14.2733L6.14719 12.8917Z" fill="#91CBD3"/>
<path d="M8.25942 15.5854C9.53948 15.5854 10.6843 15.1833 11.5711 14.2987L10.3765 12.9476C9.8599 13.4736 8.95246 13.7864 8.25942 13.7864C7.24518 13.7864 6.57034 13.4205 6.14708 12.8945L4.78711 14.2729C5.52762 15.0731 6.65736 15.5854 8.25942 15.5854Z" fill="#D36C59"/>
<path d="M29.1028 6.6084V9.9249C28.5862 9.27431 27.909 9.04913 27.1946 9.04913C25.4097 9.04913 24.1661 10.2627 24.1661 12.2659C24.1661 14.196 25.3852 15.4698 27.1724 15.4698C27.9359 15.4698 28.6257 15.309 29.1914 14.5691L29.3029 15.3572H30.8908V6.6092H29.1028V6.6084ZM27.4414 13.855C26.492 13.855 25.9509 13.1537 25.9509 12.2651C25.9509 11.3387 26.53 10.676 27.4414 10.676C28.2539 10.676 29.0783 11.2261 29.0783 12.2651C29.0783 13.4417 28.2436 13.855 27.4414 13.855Z" fill="#D36C59"/>
<g clip-path="url(#clip0)">
<path d="M46.7516 6.08325L46.1967 6.39374V6.08325C46.1967 5.94695 46.1406 5.81624 46.0407 5.71986C45.9408 5.62348 45.8053 5.56934 45.664 5.56934H43.5729C43.4316 5.56934 43.2961 5.62348 43.1962 5.71986C43.0963 5.81624 43.0402 5.94695 43.0402 6.08325V7.48504C43.0401 7.55259 43.0538 7.6195 43.0805 7.68194C43.1072 7.74438 43.1464 7.80112 43.1959 7.84892C43.2454 7.89673 43.3041 7.93465 43.3688 7.96052C43.4335 7.9864 43.5028 7.99971 43.5729 7.99971H44.1872C45.0616 7.99971 44.4639 7.99971 44.781 7.99971C45.0584 7.99971 44.8297 7.99971 45.0465 7.99971H45.6609C45.7309 7.99971 45.8002 7.9864 45.8649 7.96052C45.9296 7.93465 45.9884 7.89673 46.0378 7.84892C46.0873 7.80112 46.1265 7.74438 46.1533 7.68194C46.18 7.6195 46.1937 7.55259 46.1936 7.48504V7.16843L46.7485 7.47892C46.774 7.49316 46.8031 7.50065 46.8326 7.50064C46.8621 7.50063 46.8911 7.49311 46.9167 7.47884C46.9422 7.46458 46.9634 7.44407 46.9782 7.41938C46.9929 7.39469 47.0006 7.36669 47.0006 7.33821V6.2232C47.0002 6.19522 46.9923 6.16781 46.9777 6.14366C46.963 6.11949 46.9422 6.09938 46.9171 6.0853C46.8921 6.0712 46.8637 6.06362 46.8347 6.06326C46.8057 6.0629 46.7771 6.06978 46.7516 6.08325Z" fill="#91CBD3"/>
<path d="M43.0396 6.18457C43.0372 6.12371 43.0372 6.07892 43.0396 6.05019C43.042 6.02147 43.0471 5.99031 43.0551 5.95672L46.179 5.95454C46.1881 5.97489 46.1938 6.00416 46.1962 6.04235C46.1987 6.08053 46.1987 6.12794 46.1962 6.18457H43.0396Z" fill="#75A1A7"/>
<path d="M44.5999 5.59961H44.8375V8.02999H44.5999V5.59961Z" fill="#D36C59"/>
<path d="M45.1632 5C44.9232 5 44.7872 5.26374 44.7201 5.39945C44.653 5.26374 44.517 5 44.277 5C44.1243 5 43.9601 5.15526 43.9601 5.3C43.9601 5.44474 44.1243 5.6 44.277 5.6H44.7201H45.1632C45.3159 5.6 45.4801 5.44474 45.4801 5.3C45.4801 5.15526 45.3159 5 45.1632 5ZM44.277 5.495C44.1854 5.495 44.1109 5.42434 44.1109 5.3375C44.1109 5.25067 44.1854 5.18 44.277 5.18C44.4844 5.18 44.5975 5.38601 44.6427 5.495H44.277ZM45.1632 5.495H44.7973C44.8423 5.38606 44.9549 5.18 45.1632 5.18C45.2548 5.18 45.3293 5.25067 45.3293 5.3375C45.3293 5.42434 45.2548 5.495 45.1632 5.495Z" fill="#D36C59"/>
</g>
</g>
<defs>
<clipPath id="clip0">
<rect width="4" height="3" fill="white" transform="translate(43 5)"/>
</clipPath>
</defs>
</svg>
