<svg width="19" height="20" viewBox="0 0 19 20" fill="none" xmlns="http://www.w3.org/2000/svg">
<path d="M15.3793 0C15.8769 0 16.2808 0.448 16.2808 1V4.757L14.4777 6.757V2H1.85585V18H14.4777V15.242L16.2808 13.242V19C16.2808 19.552 15.8769 20 15.3793 20H0.954295C0.456633 20 0.0527344 19.552 0.0527344 19V1C0.0527344 0.448 0.456633 0 0.954295 0H15.3793ZM16.9822 6.808L18.257 8.222L11.2447 16L9.96809 15.998L9.9699 14.586L16.9822 6.808ZM9.06834 10V12H4.56054V10H9.06834ZM11.773 6V8H4.56054V6H11.773Z" fill="#D53E20"/>
</svg>
