<svg width="21" height="16" viewBox="0 0 21 16" fill="none" xmlns="http://www.w3.org/2000/svg">
<path d="M15.341 5.2L20.0408 1.55C20.1084 1.49746 20.1877 1.4665 20.27 1.4605C20.3524 1.4545 20.4346 1.4737 20.5078 1.51599C20.581 1.55829 20.6423 1.62206 20.6851 1.70035C20.7279 1.77865 20.7504 1.86846 20.7503 1.96V14.04C20.7504 14.1315 20.7279 14.2214 20.6851 14.2996C20.6423 14.3779 20.581 14.4417 20.5078 14.484C20.4346 14.5263 20.3524 14.5455 20.27 14.5395C20.1877 14.5335 20.1084 14.5025 20.0408 14.45L15.341 10.8V15C15.341 15.2652 15.246 15.5196 15.0769 15.7071C14.9078 15.8946 14.6785 16 14.4394 16H1.81758C1.57847 16 1.34915 15.8946 1.18008 15.7071C1.011 15.5196 0.916016 15.2652 0.916016 15V1C0.916016 0.734784 1.011 0.48043 1.18008 0.292893C1.34915 0.105357 1.57847 0 1.81758 0H14.4394C14.6785 0 14.9078 0.105357 15.0769 0.292893C15.246 0.48043 15.341 0.734784 15.341 1V5.2ZM15.341 8.359L18.9472 11.159V4.84L15.341 7.64V8.358V8.359ZM2.71914 2V14H13.5379V2H2.71914ZM4.52226 4H6.32538V6H4.52226V4Z" fill="#D53E20"/>
</svg>
